<svg width="416" height="70" viewBox="0 0 416 70" fill="none" xmlns="http://www.w3.org/2000/svg">
<g clip-path="url(#clip0_318_256)">
<!-- <path d="M146.228 48.432C144.236 48.432 142.388 48.108 140.684 47.46C139.004 46.812 137.54 45.9 136.292 44.724C135.068 43.548 134.108 42.168 133.412 40.584C132.74 39 132.404 37.272 132.404 35.4C132.404 33.528 132.74 31.8 133.412 30.216C134.108 28.632 135.08 27.252 136.328 26.076C137.576 24.9 139.04 23.988 140.72 23.34C142.4 22.692 144.224 22.368 146.192 22.368C148.184 22.368 150.008 22.692 151.664 23.34C153.344 23.988 154.796 24.9 156.02 26.076C157.268 27.252 158.24 28.632 158.936 30.216C159.632 31.776 159.98 33.504 159.98 35.4C159.98 37.272 159.632 39.012 158.936 40.62C158.24 42.204 157.268 43.584 156.02 44.76C154.796 45.912 153.344 46.812 151.664 47.46C150.008 48.108 148.196 48.432 146.228 48.432ZM146.192 43.464C147.32 43.464 148.352 43.272 149.288 42.888C150.248 42.504 151.088 41.952 151.808 41.232C152.528 40.512 153.08 39.66 153.464 38.676C153.872 37.692 154.076 36.6 154.076 35.4C154.076 34.2 153.872 33.108 153.464 32.124C153.08 31.14 152.528 30.288 151.808 29.568C151.112 28.848 150.284 28.296 149.324 27.912C148.364 27.528 147.32 27.336 146.192 27.336C145.064 27.336 144.02 27.528 143.06 27.912C142.124 28.296 141.296 28.848 140.576 29.568C139.856 30.288 139.292 31.14 138.884 32.124C138.5 33.108 138.308 34.2 138.308 35.4C138.308 36.576 138.5 37.668 138.884 38.676C139.292 39.66 139.844 40.512 140.54 41.232C141.26 41.952 142.1 42.504 143.06 42.888C144.02 43.272 145.064 43.464 146.192 43.464ZM182.634 48L171.762 22.8H178.062L187.566 45.12H183.858L193.506 22.8H199.302L188.394 48H182.634ZM218.29 32.952H230.422V37.488H218.29V32.952ZM218.722 43.32H232.438V48H212.926V22.8H231.97V27.48H218.722V43.32ZM248.599 48V22.8H259.507C261.763 22.8 263.707 23.172 265.339 23.916C266.971 24.636 268.231 25.68 269.119 27.048C270.007 28.416 270.451 30.048 270.451 31.944C270.451 33.816 270.007 35.436 269.119 36.804C268.231 38.148 266.971 39.18 265.339 39.9C263.707 40.62 261.763 40.98 259.507 40.98H251.839L254.431 38.424V48H248.599ZM264.619 48L258.319 38.856H264.547L270.919 48H264.619ZM254.431 39.072L251.839 36.336H259.183C260.983 36.336 262.327 35.952 263.215 35.184C264.103 34.392 264.547 33.312 264.547 31.944C264.547 30.552 264.103 29.472 263.215 28.704C262.327 27.936 260.983 27.552 259.183 27.552H251.839L254.431 24.78V39.072ZM294.871 48.432C292.855 48.432 290.923 48.168 289.075 47.64C287.227 47.088 285.739 46.38 284.611 45.516L286.591 41.124C287.671 41.892 288.943 42.528 290.407 43.032C291.895 43.512 293.395 43.752 294.907 43.752C296.059 43.752 296.983 43.644 297.679 43.428C298.399 43.188 298.927 42.864 299.263 42.456C299.599 42.048 299.767 41.58 299.767 41.052C299.767 40.38 299.503 39.852 298.975 39.468C298.447 39.06 297.751 38.736 296.887 38.496C296.023 38.232 295.063 37.992 294.007 37.776C292.975 37.536 291.931 37.248 290.875 36.912C289.843 36.576 288.895 36.144 288.031 35.616C287.167 35.088 286.459 34.392 285.907 33.528C285.379 32.664 285.115 31.56 285.115 30.216C285.115 28.776 285.499 27.468 286.267 26.292C287.059 25.092 288.235 24.144 289.795 23.448C291.379 22.728 293.359 22.368 295.735 22.368C297.319 22.368 298.879 22.56 300.415 22.944C301.951 23.304 303.307 23.856 304.483 24.6L302.683 29.028C301.507 28.356 300.331 27.864 299.155 27.552C297.979 27.216 296.827 27.048 295.699 27.048C294.571 27.048 293.647 27.18 292.927 27.444C292.207 27.708 291.691 28.056 291.379 28.488C291.067 28.896 290.911 29.376 290.911 29.928C290.911 30.576 291.175 31.104 291.703 31.512C292.231 31.896 292.927 32.208 293.791 32.448C294.655 32.688 295.603 32.928 296.635 33.168C297.691 33.408 298.735 33.684 299.767 33.996C300.823 34.308 301.783 34.728 302.647 35.256C303.511 35.784 304.207 36.48 304.735 37.344C305.287 38.208 305.563 39.3 305.563 40.62C305.563 42.036 305.167 43.332 304.375 44.508C303.583 45.684 302.395 46.632 300.811 47.352C299.251 48.072 297.271 48.432 294.871 48.432ZM326.432 32.952H338.564V37.488H326.432V32.952ZM326.864 43.32H340.58V48H321.068V22.8H340.112V27.48H326.864V43.32ZM362.105 32.952H374.237V37.488H362.105V32.952ZM362.537 43.32H376.253V48H356.741V22.8H375.785V27.48H362.537V43.32ZM392.413 48V22.8H403.321C405.577 22.8 407.521 23.172 409.153 23.916C410.785 24.636 412.045 25.68 412.933 27.048C413.821 28.416 414.265 30.048 414.265 31.944C414.265 33.816 413.821 35.436 412.933 36.804C412.045 38.148 410.785 39.18 409.153 39.9C407.521 40.62 405.577 40.98 403.321 40.98H395.653L398.245 38.424V48H392.413ZM408.433 48L402.133 38.856H408.361L414.733 48H408.433ZM398.245 39.072L395.653 36.336H402.997C404.797 36.336 406.141 35.952 407.029 35.184C407.917 34.392 408.361 33.312 408.361 31.944C408.361 30.552 407.917 29.472 407.029 28.704C406.141 27.936 404.797 27.552 402.997 27.552H395.653L398.245 24.78V39.072Z" fill="black"/> -->
<path d="M93.6984 0.114275H78.7178L104.399 70.0807H119.074L93.6984 0.114275Z" fill="#3CBFF8"/>
<path d="M65.9305 35.1277C65.9305 49.9462 53.2023 62.5806 36.7152 62.5806C20.2282 62.5806 7.5 49.9462 7.5 35.1277C7.5 20.3093 20.2282 7.6748 36.7152 7.6748C53.2023 7.6748 65.9305 20.3093 65.9305 35.1277Z" stroke="#48C3F8" stroke-width="15"/>
</g>
<defs>
<clipPath id="clip0_318_256">
<rect width="416" height="70" fill="white"/>
</clipPath>
</defs>
</svg>